<svg width="14" height="10" viewBox="0 0 14 10" fill="none" xmlns="http://www.w3.org/2000/svg">
<path d="M12.6875 0H1.3125C0.587617 0 0 0.559635 0 1.25V8.75C0 9.44036 0.587617 10 1.3125 10H12.6875C13.4124 10 14 9.44036 14 8.75V1.25C14 0.559635 13.4124 0 12.6875 0ZM12.6875 1.25V2.31263C12.0744 2.78812 11.097 3.5275 9.00739 5.08581C8.54689 5.43078 7.6347 6.25956 7 6.2499C6.36541 6.25966 5.45292 5.43065 4.99261 5.08581C2.90336 3.52773 1.92568 2.7882 1.3125 2.31263V1.25H12.6875ZM1.3125 8.75V3.91661C1.93905 4.3919 2.82759 5.05885 4.1819 6.06885C4.77955 6.5169 5.82619 7.50599 7 7.49997C8.16804 7.50599 9.20142 6.53125 9.81786 6.06906C11.1721 5.05909 12.0609 4.39195 12.6875 3.91664V8.75H1.3125Z" fill="#3F3F3F"/>
</svg>
