<svg width="18" height="17" viewBox="0 0 18 17" fill="none" xmlns="http://www.w3.org/2000/svg">
<path d="M17.9996 8.53122C17.9996 3.8196 13.9702 0 8.99982 0C4.0294 0 0 3.8196 0 8.53122C0 12.532 2.90586 15.8892 6.82582 16.8113V11.1384H4.97006V8.53122H6.82582V7.40783C6.82582 4.50415 8.21216 3.15826 11.2195 3.15826C11.7898 3.15826 12.7736 3.26439 13.1761 3.37017V5.73332C12.9637 5.71217 12.5947 5.70159 12.1364 5.70159C10.6608 5.70159 10.0906 6.23155 10.0906 7.60917V8.53122H13.0303L12.5252 11.1384H10.0906V17C14.5469 16.4898 18 12.8931 18 8.53122H17.9996Z" fill="#88888C"/>
</svg>
