<svg width="11" height="11" viewBox="0 0 11 11" fill="none" xmlns="http://www.w3.org/2000/svg">
<path d="M9.91667 7.29167C9.21667 7.29167 8.45833 7.175 7.81667 6.94167C7.75833 6.94167 7.7 6.94167 7.64167 6.94167C7.46667 6.94167 7.35 7 7.23333 7.11667L5.95 8.4C4.31667 7.525 2.91667 6.18333 2.1 4.55L3.38333 3.26667C3.55833 3.09167 3.61667 2.85833 3.5 2.68333C3.325 2.04167 3.20833 1.28333 3.20833 0.583333C3.20833 0.291667 2.91667 0 2.625 0H0.583333C0.291667 0 0 0.291667 0 0.583333C0 6.06667 4.43333 10.5 9.91667 10.5C10.2083 10.5 10.5 10.2083 10.5 9.91667V7.875C10.5 7.58333 10.2083 7.29167 9.91667 7.29167ZM1.16667 1.16667H2.04167C2.1 1.69167 2.21667 2.21667 2.33333 2.68333L1.63333 3.38333C1.4 2.68333 1.225 1.925 1.16667 1.16667ZM9.33333 9.33333C8.575 9.275 7.81667 9.1 7.11667 8.86667L7.81667 8.16667C8.28333 8.28333 8.80833 8.4 9.33333 8.4V9.33333Z" fill="#3F3F3F"/>
</svg>
